<?xml version="1.0" encoding="UTF-8" standalone="no"?>
<!DOCTYPE svg PUBLIC "-//W3C//DTD SVG 1.1//EN"
 "http://www.w3.org/Graphics/SVG/1.1/DTD/svg11.dtd">
<!-- Generated by graphviz version 2.40.1 (20161225.0304)
 -->
<!-- Title: dependencies Pages: 1 -->
<svg width="591pt" height="284pt"
 viewBox="0.00 0.00 591.00 284.00" xmlns="http://www.w3.org/2000/svg" xmlns:xlink="http://www.w3.org/1999/xlink">
<g id="graph0" class="graph" transform="scale(1 1) rotate(0) translate(4 280)">
<title>dependencies</title>
<polygon fill="#ffffff" stroke="transparent" points="-4,4 -4,-280 587,-280 587,4 -4,4"/>
<text text-anchor="start" x="270.5091" y="-42.4" font-family="sans-serif" font-weight="bold" font-size="14.00" fill="#000000">Legend</text>
<polygon fill="#ffffb3" stroke="transparent" points="57.5,-10 57.5,-30 77.5,-30 77.5,-10 57.5,-10"/>
<text text-anchor="start" x="81.129" y="-15.4" font-family="sans-serif" font-size="14.00" fill="#000000"> &#160;Declarations</text>
<polygon fill="#8dd3c7" stroke="transparent" points="170.5,-10 170.5,-30 190.5,-30 190.5,-10 170.5,-10"/>
<text text-anchor="start" x="194.2251" y="-15.4" font-family="sans-serif" font-size="14.00" fill="#000000"> &#160;Module</text>
<polygon fill="#80b1d3" stroke="transparent" points="256.5,-10 256.5,-30 276.5,-30 276.5,-10 256.5,-10"/>
<text text-anchor="start" x="280.2812" y="-15.4" font-family="sans-serif" font-size="14.00" fill="#000000"> &#160;Bootstrap</text>
<polygon fill="#fdb462" stroke="transparent" points="353.5,-10 353.5,-30 373.5,-30 373.5,-10 353.5,-10"/>
<text text-anchor="start" x="377.1732" y="-15.4" font-family="sans-serif" font-size="14.00" fill="#000000"> &#160;Providers</text>
<polygon fill="#fb8072" stroke="transparent" points="449.5,-10 449.5,-30 469.5,-30 469.5,-10 449.5,-10"/>
<text text-anchor="start" x="473.2258" y="-15.4" font-family="sans-serif" font-size="14.00" fill="#000000"> &#160;Exports</text>
<g id="clust1" class="cluster">
<title>cluster_VerticalTimelineModule</title>
<polygon fill="none" stroke="#000000" stroke-dasharray="1,5" points="8,-70 8,-268 575,-268 575,-70 8,-70"/>
</g>
<g id="clust2" class="cluster">
<title>cluster_VerticalTimelineModule_declarations</title>
<polygon fill="none" stroke="#000000" points="152,-78 152,-130 567,-130 567,-78 152,-78"/>
</g>
<g id="clust5" class="cluster">
<title>cluster_VerticalTimelineModule_imports</title>
<polygon fill="none" stroke="#000000" points="16,-78 16,-130 144,-130 144,-78 16,-78"/>
</g>
<g id="clust6" class="cluster">
<title>cluster_VerticalTimelineModule_exports</title>
<polygon fill="none" stroke="#000000" points="81,-208 81,-260 503,-260 503,-208 81,-208"/>
</g>
<!-- VerticalTimelineComponent -->
<g id="node1" class="node">
<title>VerticalTimelineComponent</title>
<polygon fill="#ffffb3" stroke="#000000" points="559.4594,-122 382.5406,-122 382.5406,-86 559.4594,-86 559.4594,-122"/>
<text text-anchor="middle" x="471" y="-99.8" font-family="Times,serif" font-size="14.00" fill="#000000">VerticalTimelineComponent</text>
</g>
<!-- VerticalTimelineModule -->
<g id="node3" class="node">
<title>VerticalTimelineModule</title>
<polygon fill="#8dd3c7" stroke="#000000" points="339.6769,-187 336.6769,-191 315.6769,-191 312.6769,-187 184.3231,-187 184.3231,-151 339.6769,-151 339.6769,-187"/>
<text text-anchor="middle" x="262" y="-164.8" font-family="Times,serif" font-size="14.00" fill="#000000">VerticalTimelineModule</text>
</g>
<!-- VerticalTimelineComponent&#45;&gt;VerticalTimelineModule -->
<g id="edge1" class="edge">
<title>VerticalTimelineComponent&#45;&gt;VerticalTimelineModule</title>
<path fill="none" stroke="#000000" d="M457.6599,-122.2843C457.6599,-143.3211 457.6599,-175 457.6599,-175 457.6599,-175 349.611,-175 349.611,-175"/>
<polygon fill="#000000" stroke="#000000" points="349.611,-171.5001 339.611,-175 349.611,-178.5001 349.611,-171.5001"/>
</g>
<!-- VerticalTimelineComponent&#45;&gt;VerticalTimelineModule -->
<g id="edge6" class="edge">
<title>VerticalTimelineComponent&#45;&gt;VerticalTimelineModule</title>
<path fill="none" stroke="#000000" d="M420.0901,-122.0225C420.0901,-139.3734 420.0901,-163 420.0901,-163 420.0901,-163 349.6556,-163 349.6556,-163"/>
<polygon fill="#000000" stroke="#000000" points="349.6557,-159.5001 339.6556,-163 349.6556,-166.5001 349.6557,-159.5001"/>
</g>
<!-- VerticalTimelineCardComponent -->
<g id="node2" class="node">
<title>VerticalTimelineCardComponent</title>
<polygon fill="#ffffb3" stroke="#000000" points="364.1713,-122 159.8287,-122 159.8287,-86 364.1713,-86 364.1713,-122"/>
<text text-anchor="middle" x="262" y="-99.8" font-family="Times,serif" font-size="14.00" fill="#000000">VerticalTimelineCardComponent</text>
</g>
<!-- VerticalTimelineCardComponent&#45;&gt;VerticalTimelineModule -->
<g id="edge2" class="edge">
<title>VerticalTimelineCardComponent&#45;&gt;VerticalTimelineModule</title>
<path fill="none" stroke="#000000" d="M236.1372,-122.1061C236.1372,-122.1061 236.1372,-140.991 236.1372,-140.991"/>
<polygon fill="#000000" stroke="#000000" points="232.6373,-140.9909 236.1372,-150.991 239.6373,-140.991 232.6373,-140.9909"/>
</g>
<!-- VerticalTimelineCardComponent&#45;&gt;VerticalTimelineModule -->
<g id="edge7" class="edge">
<title>VerticalTimelineCardComponent&#45;&gt;VerticalTimelineModule</title>
<path fill="none" stroke="#000000" d="M287.8628,-122.1061C287.8628,-122.1061 287.8628,-140.991 287.8628,-140.991"/>
<polygon fill="#000000" stroke="#000000" points="284.3629,-140.9909 287.8628,-150.991 291.3629,-140.991 284.3629,-140.9909"/>
</g>
<!-- VerticalTimelineComponent  -->
<g id="node5" class="node">
<title>VerticalTimelineComponent </title>
<polygon fill="#fb8072" stroke="#000000" points="495.46,-252 314.54,-252 314.54,-216 495.46,-216 495.46,-252"/>
<text text-anchor="middle" x="405" y="-229.8" font-family="Times,serif" font-size="14.00" fill="#000000">VerticalTimelineComponent </text>
</g>
<!-- VerticalTimelineModule&#45;&gt;VerticalTimelineComponent  -->
<g id="edge4" class="edge">
<title>VerticalTimelineModule&#45;&gt;VerticalTimelineComponent </title>
<path fill="none" stroke="#000000" stroke-dasharray="5,2" d="M323.043,-187.1061C323.043,-187.1061 323.043,-205.991 323.043,-205.991"/>
<polygon fill="#000000" stroke="#000000" points="319.5431,-205.9909 323.043,-215.991 326.5431,-205.991 319.5431,-205.9909"/>
</g>
<!-- VerticalTimelineModule&#45;&gt;VerticalTimelineComponent  -->
<g id="edge9" class="edge">
<title>VerticalTimelineModule&#45;&gt;VerticalTimelineComponent </title>
<path fill="none" stroke="#000000" stroke-dasharray="5,2" d="M331.3157,-187.1061C331.3157,-187.1061 331.3157,-205.991 331.3157,-205.991"/>
<polygon fill="#000000" stroke="#000000" points="327.8158,-205.9909 331.3157,-215.991 334.8158,-205.991 327.8158,-205.9909"/>
</g>
<!-- VerticalTimelineCardComponent  -->
<g id="node6" class="node">
<title>VerticalTimelineCardComponent </title>
<polygon fill="#fb8072" stroke="#000000" points="296.6715,-252 89.3285,-252 89.3285,-216 296.6715,-216 296.6715,-252"/>
<text text-anchor="middle" x="193" y="-229.8" font-family="Times,serif" font-size="14.00" fill="#000000">VerticalTimelineCardComponent </text>
</g>
<!-- VerticalTimelineModule&#45;&gt;VerticalTimelineCardComponent  -->
<g id="edge5" class="edge">
<title>VerticalTimelineModule&#45;&gt;VerticalTimelineCardComponent </title>
<path fill="none" stroke="#000000" stroke-dasharray="5,2" d="M259.3609,-187.1061C259.3609,-187.1061 259.3609,-205.991 259.3609,-205.991"/>
<polygon fill="#000000" stroke="#000000" points="255.861,-205.9909 259.3609,-215.991 262.861,-205.991 255.861,-205.9909"/>
</g>
<!-- VerticalTimelineModule&#45;&gt;VerticalTimelineCardComponent  -->
<g id="edge10" class="edge">
<title>VerticalTimelineModule&#45;&gt;VerticalTimelineCardComponent </title>
<path fill="none" stroke="#000000" stroke-dasharray="5,2" d="M221.8863,-187.1061C221.8863,-187.1061 221.8863,-205.991 221.8863,-205.991"/>
<polygon fill="#000000" stroke="#000000" points="218.3864,-205.9909 221.8863,-215.991 225.3864,-205.991 218.3864,-205.9909"/>
</g>
<!-- CommonModule -->
<g id="node4" class="node">
<title>CommonModule</title>
<polygon fill="#8dd3c7" stroke="#000000" points="135.6681,-122 132.6681,-126 111.6681,-126 108.6681,-122 24.3319,-122 24.3319,-86 135.6681,-86 135.6681,-122"/>
<text text-anchor="middle" x="80" y="-99.8" font-family="Times,serif" font-size="14.00" fill="#000000">CommonModule</text>
</g>
<!-- CommonModule&#45;&gt;VerticalTimelineModule -->
<g id="edge3" class="edge">
<title>CommonModule&#45;&gt;VerticalTimelineModule</title>
<path fill="none" stroke="#000000" d="M120.2773,-122.0225C120.2773,-139.3734 120.2773,-163 120.2773,-163 120.2773,-163 174.0906,-163 174.0906,-163"/>
<polygon fill="#000000" stroke="#000000" points="174.0906,-166.5001 184.0906,-163 174.0906,-159.5001 174.0906,-166.5001"/>
</g>
<!-- CommonModule&#45;&gt;VerticalTimelineModule -->
<g id="edge8" class="edge">
<title>CommonModule&#45;&gt;VerticalTimelineModule</title>
<path fill="none" stroke="#000000" d="M104.7209,-122.2843C104.7209,-143.3211 104.7209,-175 104.7209,-175 104.7209,-175 174.282,-175 174.282,-175"/>
<polygon fill="#000000" stroke="#000000" points="174.282,-178.5001 184.282,-175 174.2819,-171.5001 174.282,-178.5001"/>
</g>
</g>
</svg>
