<?xml version="1.0" encoding="UTF-8" standalone="no"?>
<!DOCTYPE svg PUBLIC "-//W3C//DTD SVG 1.1//EN"
 "http://www.w3.org/Graphics/SVG/1.1/DTD/svg11.dtd">
<!-- Generated by graphviz version 2.40.1 (20161225.0304)
 -->
<!-- Title: dependencies Pages: 1 -->
<svg width="1211pt" height="290pt"
 viewBox="0.00 0.00 1211.00 290.00" xmlns="http://www.w3.org/2000/svg" xmlns:xlink="http://www.w3.org/1999/xlink">
<g id="graph0" class="graph" transform="scale(1 1) rotate(0) translate(4 286)">
<title>dependencies</title>
<polygon fill="#ffffff" stroke="transparent" points="-4,4 -4,-286 1207,-286 1207,4 -4,4"/>
<text text-anchor="start" x="580.5091" y="-42.4" font-family="sans-serif" font-weight="bold" font-size="14.00" fill="#000000">Legend</text>
<polygon fill="#ffffb3" stroke="transparent" points="367.5,-10 367.5,-30 387.5,-30 387.5,-10 367.5,-10"/>
<text text-anchor="start" x="391.129" y="-15.4" font-family="sans-serif" font-size="14.00" fill="#000000"> &#160;Declarations</text>
<polygon fill="#8dd3c7" stroke="transparent" points="480.5,-10 480.5,-30 500.5,-30 500.5,-10 480.5,-10"/>
<text text-anchor="start" x="504.2251" y="-15.4" font-family="sans-serif" font-size="14.00" fill="#000000"> &#160;Module</text>
<polygon fill="#80b1d3" stroke="transparent" points="566.5,-10 566.5,-30 586.5,-30 586.5,-10 566.5,-10"/>
<text text-anchor="start" x="590.2812" y="-15.4" font-family="sans-serif" font-size="14.00" fill="#000000"> &#160;Bootstrap</text>
<polygon fill="#fdb462" stroke="transparent" points="663.5,-10 663.5,-30 683.5,-30 683.5,-10 663.5,-10"/>
<text text-anchor="start" x="687.1732" y="-15.4" font-family="sans-serif" font-size="14.00" fill="#000000"> &#160;Providers</text>
<polygon fill="#fb8072" stroke="transparent" points="759.5,-10 759.5,-30 779.5,-30 779.5,-10 759.5,-10"/>
<text text-anchor="start" x="783.2258" y="-15.4" font-family="sans-serif" font-size="14.00" fill="#000000"> &#160;Exports</text>
<g id="clust1" class="cluster">
<title>cluster_AppModule</title>
<polygon fill="none" stroke="#000000" stroke-dasharray="1,5" points="8,-70 8,-274 326,-274 326,-70 8,-70"/>
</g>
<g id="clust2" class="cluster">
<title>cluster_AppModule_declarations</title>
<polygon fill="none" stroke="#000000" points="16,-78 16,-130 138,-130 138,-78 16,-78"/>
</g>
<g id="clust4" class="cluster">
<title>cluster_AppModule_imports</title>
<polygon fill="none" stroke="#000000" points="146,-78 146,-130 318,-130 318,-78 146,-78"/>
</g>
<g id="clust6" class="cluster">
<title>cluster_AppModule_bootstrap</title>
<polygon fill="none" stroke="#000000" points="93,-214 93,-266 217,-266 217,-214 93,-214"/>
</g>
<g id="clust8" class="cluster">
<title>cluster_VerticalTimelineModule</title>
<polygon fill="none" stroke="#000000" stroke-dasharray="1,5" points="334,-138 334,-206 1195,-206 1195,-138 334,-138"/>
</g>
<g id="clust9" class="cluster">
<title>cluster_VerticalTimelineModule_declarations</title>
<polygon fill="none" stroke="#000000" points="772,-146 772,-198 1187,-198 1187,-146 772,-146"/>
</g>
<g id="clust13" class="cluster">
<title>cluster_VerticalTimelineModule_exports</title>
<polygon fill="none" stroke="#000000" points="342,-146 342,-198 764,-198 764,-146 342,-146"/>
</g>
<!-- AppComponent -->
<g id="node1" class="node">
<title>AppComponent</title>
<polygon fill="#ffffb3" stroke="#000000" points="129.9399,-122 24.0601,-122 24.0601,-86 129.9399,-86 129.9399,-122"/>
<text text-anchor="middle" x="77" y="-99.8" font-family="Times,serif" font-size="14.00" fill="#000000">AppComponent</text>
</g>
<!-- AppModule -->
<g id="node2" class="node">
<title>AppModule</title>
<polygon fill="#8dd3c7" stroke="#000000" points="196.6571,-190 193.6571,-194 172.6571,-194 169.6571,-190 113.3429,-190 113.3429,-154 196.6571,-154 196.6571,-190"/>
<text text-anchor="middle" x="155" y="-167.8" font-family="Times,serif" font-size="14.00" fill="#000000">AppModule</text>
</g>
<!-- AppComponent&#45;&gt;AppModule -->
<g id="edge1" class="edge">
<title>AppComponent&#45;&gt;AppModule</title>
<path fill="none" stroke="#000000" d="M121.4457,-122.2228C121.4457,-122.2228 121.4457,-143.7269 121.4457,-143.7269"/>
<polygon fill="#000000" stroke="#000000" points="117.9457,-143.7269 121.4457,-153.7269 124.9457,-143.727 117.9457,-143.7269"/>
</g>
<!-- AppComponent  -->
<g id="node4" class="node">
<title>AppComponent </title>
<polygon fill="#80b1d3" stroke="#000000" points="209.439,-258 100.561,-258 100.561,-222 209.439,-222 209.439,-258"/>
<text text-anchor="middle" x="155" y="-235.8" font-family="Times,serif" font-size="14.00" fill="#000000">AppComponent </text>
</g>
<!-- AppModule&#45;&gt;AppComponent  -->
<g id="edge3" class="edge">
<title>AppModule&#45;&gt;AppComponent </title>
<path fill="none" stroke="#000000" stroke-dasharray="1,5" d="M155,-190.2228C155,-190.2228 155,-211.7269 155,-211.7269"/>
<polygon fill="#000000" stroke="#000000" points="151.5001,-211.7269 155,-221.7269 158.5001,-211.727 151.5001,-211.7269"/>
</g>
<!-- VerticalTimelineModule -->
<g id="node3" class="node">
<title>VerticalTimelineModule</title>
<polygon fill="#8dd3c7" stroke="#000000" points="309.6769,-122 306.6769,-126 285.6769,-126 282.6769,-122 154.3231,-122 154.3231,-86 309.6769,-86 309.6769,-122"/>
<text text-anchor="middle" x="232" y="-99.8" font-family="Times,serif" font-size="14.00" fill="#000000">VerticalTimelineModule</text>
</g>
<!-- VerticalTimelineModule&#45;&gt;AppModule -->
<g id="edge2" class="edge">
<title>VerticalTimelineModule&#45;&gt;AppModule</title>
<path fill="none" stroke="#000000" d="M175.6199,-122.2228C175.6199,-122.2228 175.6199,-143.7269 175.6199,-143.7269"/>
<polygon fill="#000000" stroke="#000000" points="172.12,-143.7269 175.6199,-153.7269 179.12,-143.727 172.12,-143.7269"/>
</g>
<!-- VerticalTimelineComponent  -->
<g id="node7" class="node">
<title>VerticalTimelineComponent </title>
<polygon fill="#fb8072" stroke="#000000" points="756.46,-190 575.54,-190 575.54,-154 756.46,-154 756.46,-190"/>
<text text-anchor="middle" x="666" y="-167.8" font-family="Times,serif" font-size="14.00" fill="#000000">VerticalTimelineComponent </text>
</g>
<!-- VerticalTimelineModule&#45;&gt;VerticalTimelineComponent  -->
<g id="edge6" class="edge">
<title>VerticalTimelineModule&#45;&gt;VerticalTimelineComponent </title>
<path fill="none" stroke="#000000" stroke-dasharray="5,2" d="M309.5905,-113C434.4243,-113 666,-113 666,-113 666,-113 666,-143.9775 666,-143.9775"/>
<polygon fill="#000000" stroke="#000000" points="662.5001,-143.9774 666,-153.9775 669.5001,-143.9775 662.5001,-143.9774"/>
</g>
<!-- VerticalTimelineCardComponent  -->
<g id="node8" class="node">
<title>VerticalTimelineCardComponent </title>
<polygon fill="#fb8072" stroke="#000000" points="557.6715,-190 350.3285,-190 350.3285,-154 557.6715,-154 557.6715,-190"/>
<text text-anchor="middle" x="454" y="-167.8" font-family="Times,serif" font-size="14.00" fill="#000000">VerticalTimelineCardComponent </text>
</g>
<!-- VerticalTimelineModule&#45;&gt;VerticalTimelineCardComponent  -->
<g id="edge7" class="edge">
<title>VerticalTimelineModule&#45;&gt;VerticalTimelineCardComponent </title>
<path fill="none" stroke="#000000" stroke-dasharray="5,2" d="M259.529,-122.2228C259.529,-142.3652 259.529,-172 259.529,-172 259.529,-172 340.2169,-172 340.2169,-172"/>
<polygon fill="#000000" stroke="#000000" points="340.2169,-175.5001 350.2169,-172 340.2168,-168.5001 340.2169,-175.5001"/>
</g>
<!-- VerticalTimelineComponent -->
<g id="node5" class="node">
<title>VerticalTimelineComponent</title>
<polygon fill="#ffffb3" stroke="#000000" points="1179.4594,-190 1002.5406,-190 1002.5406,-154 1179.4594,-154 1179.4594,-190"/>
<text text-anchor="middle" x="1091" y="-167.8" font-family="Times,serif" font-size="14.00" fill="#000000">VerticalTimelineComponent</text>
</g>
<!-- VerticalTimelineComponent&#45;&gt;VerticalTimelineModule -->
<g id="edge4" class="edge">
<title>VerticalTimelineComponent&#45;&gt;VerticalTimelineModule</title>
<path fill="none" stroke="#000000" d="M1091,-153.7521C1091,-130.9821 1091,-95 1091,-95 1091,-95 319.7456,-95 319.7456,-95"/>
<polygon fill="#000000" stroke="#000000" points="319.7456,-91.5001 309.7456,-95 319.7455,-98.5001 319.7456,-91.5001"/>
</g>
<!-- VerticalTimelineCardComponent -->
<g id="node6" class="node">
<title>VerticalTimelineCardComponent</title>
<polygon fill="#ffffb3" stroke="#000000" points="984.1713,-190 779.8287,-190 779.8287,-154 984.1713,-154 984.1713,-190"/>
<text text-anchor="middle" x="882" y="-167.8" font-family="Times,serif" font-size="14.00" fill="#000000">VerticalTimelineCardComponent</text>
</g>
<!-- VerticalTimelineCardComponent&#45;&gt;VerticalTimelineModule -->
<g id="edge5" class="edge">
<title>VerticalTimelineCardComponent&#45;&gt;VerticalTimelineModule</title>
<path fill="none" stroke="#000000" d="M882,-153.7772C882,-133.6348 882,-104 882,-104 882,-104 319.7596,-104 319.7596,-104"/>
<polygon fill="#000000" stroke="#000000" points="319.7596,-100.5001 309.7596,-104 319.7595,-107.5001 319.7596,-100.5001"/>
</g>
</g>
</svg>
